<?xml version="1.0" encoding="UTF-8"?>
<svg version="1.1" xmlns="http://www.w3.org/2000/svg" width="1487" height="1414">
<path d="M0 0 C5.03625259 1.53903429 9.65357046 3.62236233 14.38671875 5.89453125 C15.19279068 6.27815323 15.99886261 6.66177521 16.82936096 7.05702209 C19.45035475 8.30549473 22.06893225 9.55894807 24.6875 10.8125 C26.50800884 11.68077221 28.32864784 12.54877156 30.14941406 13.41650391 C41.27500253 18.7226167 52.38073776 24.06925119 63.47729492 29.43579102 C71.11571425 33.11986166 78.79852866 36.69991583 86.5 40.25 C97.99473283 45.54964608 109.38394538 51.0474803 120.75708008 56.60241699 C130.45930879 61.3389174 140.19066455 65.98838927 150 70.5 C161.33184881 75.71186077 172.55236049 81.12963793 183.75927734 86.60351562 C193.46077349 91.33964598 203.1914103 95.98873226 213 100.5 C224.33184881 105.71186077 235.55236049 111.12963793 246.75927734 116.60351562 C256.46077349 121.33964598 266.1914103 125.98873226 276 130.5 C287.33184881 135.71186077 298.55236049 141.12963793 309.75927734 146.60351562 C319.46077349 151.33964598 329.1914103 155.98873226 339 160.5 C350.33184881 165.71186077 361.55236049 171.12963793 372.75927734 176.60351562 C382.46077349 181.33964598 392.1914103 185.98873226 402 190.5 C413.33184881 195.71186077 424.55236049 201.12963793 435.75927734 206.60351562 C445.46077349 211.33964598 455.1914103 215.98873226 465 220.5 C476.3325289 225.71217357 487.55374659 231.13022282 498.7612915 236.60452271 C508.42032409 241.32004343 518.10825569 245.94822454 527.875 250.4375 C539.63700749 255.84500402 551.27389724 261.48727821 562.90222168 267.17498779 C574.0318535 272.61607175 585.20809341 277.92350083 596.46484375 283.09765625 C605.87304016 287.43823129 615.19036906 291.95273189 624.5 296.5 C634.95376852 301.60604124 645.42973325 306.6384139 656 311.5 C667.33184881 316.71186077 678.55236049 322.12963793 689.75927734 327.60351562 C699.46077349 332.33964598 709.1914103 336.98873226 719 341.5 C730.33184881 346.71186077 741.55236049 352.12963793 752.75927734 357.60351562 C762.46077349 362.33964598 772.1914103 366.98873226 782 371.5 C793.33184881 376.71186077 804.55236049 382.12963793 815.75927734 387.60351562 C825.46077349 392.33964598 835.1914103 396.98873226 845 401.5 C856.33184881 406.71186077 867.55236049 412.12963793 878.75927734 417.60351562 C888.46077349 422.33964598 898.1914103 426.98873226 908 431.5 C919.33184881 436.71186077 930.55236049 442.12963793 941.75927734 447.60351562 C951.46077349 452.33964598 961.1914103 456.98873226 971 461.5 C982.33184881 466.71186077 993.55236049 472.12963793 1004.75927734 477.60351562 C1014.46077349 482.33964598 1024.1914103 486.98873226 1034 491.5 C1045.33184881 496.71186077 1056.55236049 502.12963793 1067.75927734 507.60351562 C1077.46077349 512.33964598 1087.1914103 516.98873226 1097 521.5 C1108.33184881 526.71186077 1119.55236049 532.12963793 1130.75927734 537.60351562 C1140.46077349 542.33964598 1150.1914103 546.98873226 1160 551.5 C1171.33184881 556.71186077 1182.55236049 562.12963793 1193.75927734 567.60351562 C1203.46077349 572.33964598 1213.1914103 576.98873226 1223 581.5 C1234.33184881 586.71186077 1245.55236049 592.12963793 1256.75927734 597.60351562 C1266.46077349 602.33964598 1276.1914103 606.98873226 1286 611.5 C1297.3325289 616.71217357 1308.55374659 622.13022282 1319.7612915 627.60452271 C1329.42032409 632.32004343 1339.10825569 636.94822454 1348.875 641.4375 C1360.63700749 646.84500402 1372.27389724 652.48727821 1383.90222168 658.17498779 C1393.9299677 663.0773789 1403.98309613 667.89966627 1414.125 672.5625 C1427.05166876 678.50609059 1439.84149279 684.71424033 1452.62876892 690.95050049 C1453.34424393 691.29941345 1454.05971893 691.64832642 1454.796875 692.0078125 C1455.50199722 692.35173035 1456.20711945 692.69564819 1456.93360901 693.04998779 C1465.92489196 697.43132522 1474.95749777 701.72555353 1484 706 C1484 706.66 1484 707.32 1484 708 C1444.27395423 727.50363015 1444.27395423 727.50363015 1425.33886719 736.19604492 C1415.99444251 740.50047977 1406.74391705 744.98463979 1397.5 749.5 C1385.93624951 755.14826606 1374.32932913 760.66908904 1362.63671875 766.046875 C1353.19548525 770.40602738 1343.84362008 774.9362262 1334.5 779.5 C1322.93620947 785.14818816 1311.32933194 790.66908775 1299.63671875 796.046875 C1290.19548525 800.40602738 1280.84362008 804.9362262 1271.5 809.5 C1259.93620947 815.14818816 1248.32933194 820.66908775 1236.63671875 826.046875 C1227.19548525 830.40602738 1217.84362008 834.9362262 1208.5 839.5 C1196.93620947 845.14818816 1185.32933194 850.66908775 1173.63671875 856.046875 C1164.19548525 860.40602738 1154.84362008 864.9362262 1145.5 869.5 C1133.93620947 875.14818816 1122.32933194 880.66908775 1110.63671875 886.046875 C1101.19548525 890.40602738 1091.84362008 894.9362262 1082.5 899.5 C1070.93620947 905.14818816 1059.32933194 910.66908775 1047.63671875 916.046875 C1038.19548525 920.40602738 1028.84362008 924.9362262 1019.5 929.5 C1007.93620947 935.14818816 996.32933194 940.66908775 984.63671875 946.046875 C975.19548525 950.40602738 965.84362008 954.9362262 956.5 959.5 C944.93620947 965.14818816 933.32933194 970.66908775 921.63671875 976.046875 C912.19548525 980.40602738 902.84362008 984.9362262 893.5 989.5 C881.93620947 995.14818816 870.32933194 1000.66908775 858.63671875 1006.046875 C849.19548525 1010.40602738 839.84362008 1014.9362262 830.5 1019.5 C818.93620947 1025.14818816 807.32933194 1030.66908775 795.63671875 1036.046875 C786.19548525 1040.40602738 776.84362008 1044.9362262 767.5 1049.5 C755.93620947 1055.14818816 744.32933194 1060.66908775 732.63671875 1066.046875 C723.19548525 1070.40602738 713.84362008 1074.9362262 704.5 1079.5 C692.93620947 1085.14818816 681.32933194 1090.66908775 669.63671875 1096.046875 C660.19548525 1100.40602738 650.84362008 1104.9362262 641.5 1109.5 C629.93620947 1115.14818816 618.32933194 1120.66908775 606.63671875 1126.046875 C597.19548525 1130.40602738 587.84362008 1134.9362262 578.5 1139.5 C566.93620947 1145.14818816 555.32933194 1150.66908775 543.63671875 1156.046875 C534.19548525 1160.40602738 524.84362008 1164.9362262 515.5 1169.5 C503.93620947 1175.14818816 492.32933194 1180.66908775 480.63671875 1186.046875 C471.19548525 1190.40602738 461.84362008 1194.9362262 452.5 1199.5 C440.93620947 1205.14818816 429.32933194 1210.66908775 417.63671875 1216.046875 C408.19548525 1220.40602738 398.84362008 1224.9362262 389.5 1229.5 C377.93620947 1235.14818816 366.32933194 1240.66908775 354.63671875 1246.046875 C345.19548525 1250.40602738 335.84362008 1254.9362262 326.5 1259.5 C314.93620947 1265.14818816 303.32933194 1270.66908775 291.63671875 1276.046875 C282.19548525 1280.40602738 272.84362008 1284.9362262 263.5 1289.5 C251.93620947 1295.14818816 240.32933194 1300.66908775 228.63671875 1306.046875 C219.19548525 1310.40602738 209.84362008 1314.9362262 200.5 1319.5 C188.93620947 1325.14818816 177.32933194 1330.66908775 165.63671875 1336.046875 C156.19548525 1340.40602738 146.84362008 1344.9362262 137.5 1349.5 C125.93620947 1355.14818816 114.32933194 1360.66908775 102.63671875 1366.046875 C93.19548243 1370.40602868 83.84366348 1374.93631017 74.5 1379.5 C62.76708518 1385.23030928 50.99647085 1390.84975866 39.12915039 1396.29736328 C33.17373257 1399.0374555 27.25359123 1401.83407146 21.37109375 1404.7265625 C20.43114059 1405.18699951 20.43114059 1405.18699951 19.47219849 1405.65673828 C16.45441957 1407.13533941 13.44231854 1408.62300522 10.4375 1410.12792969 C9.37402344 1410.65032227 8.31054688 1411.17271484 7.21484375 1411.7109375 C5.80900024 1412.41162354 5.80900024 1412.41162354 4.37475586 1413.12646484 C2 1414 2 1414 -1 1413 C-2.56251803 1410.81247475 -3.01517154 1409.4779035 -2.9296875 1406.78515625 C-1.5601907 1402.68242005 1.13191227 1400.23341664 4.125 1397.1875 C5.32109638 1395.9369472 6.51641604 1394.685651 7.7109375 1393.43359375 C8.28424805 1392.83788574 8.85755859 1392.24217773 9.44824219 1391.62841797 C11.27135004 1389.71524469 13.02350402 1387.7506079 14.75 1385.75 C17.29711438 1382.79938235 19.88752237 1379.89301214 22.5 1377 C25.18983431 1374.01937279 27.86310364 1371.02754767 30.5 1368 C33.89253093 1364.10487189 37.35194201 1360.27217237 40.8125 1356.4375 C42.72554149 1354.30582519 44.61887612 1352.1598089 46.5 1350 C49.89253093 1346.10487189 53.35194201 1342.27217237 56.8125 1338.4375 C58.72554149 1336.30582519 60.61887612 1334.1598089 62.5 1332 C65.89374015 1328.10348353 69.35430003 1324.26935055 72.81640625 1320.43359375 C74.70848685 1318.32488854 76.57905758 1316.20080199 78.4375 1314.0625 C82.08937053 1309.86835635 85.84266184 1305.76905708 89.58984375 1301.66015625 C92.16993136 1298.81244205 94.70201856 1295.92755982 97.22265625 1293.02734375 C99.29359487 1290.66510827 101.39512848 1288.33204147 103.5 1286 C106.18983431 1283.01937279 108.86310364 1280.02754767 111.5 1277 C114.89253093 1273.10487189 118.35194201 1269.27217237 121.8125 1265.4375 C123.72554149 1263.30582519 125.61887612 1261.1598089 127.5 1259 C130.89253093 1255.10487189 134.35194201 1251.27217237 137.8125 1247.4375 C139.72554149 1245.30582519 141.61887612 1243.1598089 143.5 1241 C146.89374015 1237.10348353 150.35430003 1233.26935055 153.81640625 1229.43359375 C155.70848685 1227.32488854 157.57905758 1225.20080199 159.4375 1223.0625 C163.08937053 1218.86835635 166.84266184 1214.76905708 170.58984375 1210.66015625 C173.16993136 1207.81244205 175.70201856 1204.92755982 178.22265625 1202.02734375 C180.29359487 1199.66510827 182.39512848 1197.33204147 184.5 1195 C187.18983431 1192.01937279 189.86310364 1189.02754767 192.5 1186 C195.89253093 1182.10487189 199.35194201 1178.27217237 202.8125 1174.4375 C204.72554149 1172.30582519 206.61887612 1170.1598089 208.5 1168 C211.89253093 1164.10487189 215.35194201 1160.27217237 218.8125 1156.4375 C220.72554149 1154.30582519 222.61887612 1152.1598089 224.5 1150 C227.89253093 1146.10487189 231.35194201 1142.27217237 234.8125 1138.4375 C236.72554149 1136.30582519 238.61887612 1134.1598089 240.5 1132 C245.37143203 1126.41020011 250.3589515 1120.92465102 255.328125 1115.421875 C259.31704577 1110.99878599 263.27567907 1106.55384995 267.1875 1102.0625 C270.03147795 1098.82624923 272.92612701 1095.63591332 275.8125 1092.4375 C277.72554149 1090.30582519 279.61887612 1088.1598089 281.5 1086 C284.89253093 1082.10487189 288.35194201 1078.27217237 291.8125 1074.4375 C293.72554149 1072.30582519 295.61887612 1070.1598089 297.5 1068 C300.89253093 1064.10487189 304.35194201 1060.27217237 307.8125 1056.4375 C309.72554149 1054.30582519 311.61887612 1052.1598089 313.5 1050 C316.89253093 1046.10487189 320.35194201 1042.27217237 323.8125 1038.4375 C325.72554149 1036.30582519 327.61887612 1034.1598089 329.5 1032 C332.89253093 1028.10487189 336.35194201 1024.27217237 339.8125 1020.4375 C341.72554149 1018.30582519 343.61887612 1016.1598089 345.5 1014 C348.89253093 1010.10487189 352.35194201 1006.27217237 355.8125 1002.4375 C357.72554149 1000.30582519 359.61887612 998.1598089 361.5 996 C364.89253093 992.10487189 368.35194201 988.27217237 371.8125 984.4375 C373.72554149 982.30582519 375.61887612 980.1598089 377.5 978 C380.89253093 974.10487189 384.35194201 970.27217237 387.8125 966.4375 C389.72554149 964.30582519 391.61887612 962.1598089 393.5 960 C396.13689636 956.97245233 398.81016569 953.98062721 401.5 951 C406.29907792 945.67665307 411.0407795 940.31136661 415.6796875 934.84765625 C421.27441739 928.26681821 426.95735112 921.80234102 432.84375 915.48046875 C436.05969439 912.02630626 439.20517955 908.52564408 442.29296875 904.95703125 C444.33633431 902.6144085 446.41680859 900.30726578 448.5 898 C451.76704335 894.37976277 454.99520776 890.73016435 458.1953125 887.05078125 C460.22958141 884.73911203 462.3022231 882.4646857 464.375 880.1875 C467.42858867 876.81059018 470.34429205 873.36782868 473.1875 869.8125 C478.09404731 863.74183338 483.43200617 858.10931085 488.78125 852.4296875 C492.73316017 848.23191078 496.52345773 843.91709495 500.25439453 839.52246094 C506.79404337 831.82207553 513.45091217 824.27591084 520.33203125 816.87890625 C524.5674635 812.3086082 528.63526191 807.60835337 532.66796875 802.859375 C538.21916343 796.33372469 543.86145879 789.93741372 549.71411133 783.68041992 C552.7383702 780.42668335 555.60000498 777.09759081 558.375 773.625 C563.20248657 767.60826035 568.48270464 762.05469097 573.76953125 756.4453125 C576.70962124 753.322989 579.56121004 750.13735739 582.36328125 746.890625 C586.96322642 741.57708452 591.6147559 736.30660798 596.625 731.375 C607.90390045 720.81482834 607.90390045 720.81482834 614.4375 707.4375 C613.388207 699.193055 606.07996457 692.6141189 600.5 686.875 C599.08179099 685.39085455 597.66382703 683.9064749 596.24609375 682.421875 C595.53694824 681.68388672 594.82780273 680.94589844 594.09716797 680.18554688 C586.20902227 671.96497874 578.46036424 663.72781597 571.34765625 654.8203125 C567.4274265 650.11081852 563.19880954 645.69029491 559.0078125 641.22265625 C556.15453222 638.17862987 553.38811991 635.07033123 550.6640625 631.91015625 C548.68459874 629.63795489 546.6541683 627.41540128 544.625 625.1875 C541.57141133 621.81059018 538.65570795 618.36782868 535.8125 614.8125 C531.50464496 609.47860593 526.86140135 604.52484514 522.15356445 599.5480957 C518.78588086 595.96961956 515.56654594 592.34462476 512.5 588.5 C507.72003354 582.51161505 502.46780643 577.00315587 497.21875 571.4296875 C493.26683983 567.23191078 489.47654227 562.91709495 485.74560547 558.52246094 C484.2695406 556.78440609 482.79163162 555.04794577 481.3125 553.3125 C480.80017822 552.71131348 480.28785645 552.11012695 479.76000977 551.49072266 C475.7176704 546.77497386 471.52823035 542.21585158 467.28588867 537.68041992 C464.2616298 534.42668335 461.39999502 531.09759081 458.625 527.625 C454.39021152 522.34306383 449.80128475 517.46123122 445.15283203 512.54736328 C441.01412954 508.14950317 437.17268456 503.59709705 433.40625 498.875 C430.40257995 495.28619942 427.21525846 491.8987933 424 488.5 C419.22821617 483.45583104 414.73816007 478.30605144 410.40625 472.875 C407.4025791 469.28619841 404.21524703 465.89880547 401 462.5 C396.21104408 457.43735325 391.69833775 452.26882952 387.34765625 446.8203125 C383.4274265 442.11081852 379.19880954 437.69029491 375.0078125 433.22265625 C372.15453222 430.17862987 369.38811991 427.07033123 366.6640625 423.91015625 C364.68459874 421.63795489 362.6541683 419.41540128 360.625 417.1875 C357.55253227 413.78916448 354.61557378 410.32409477 351.75 406.75 C347.6504808 401.67576994 343.26629138 396.9376967 338.79785156 392.19238281 C334.77685161 387.89909097 331.05017546 383.43771932 327.375 378.84375 C324.53535544 375.44364928 321.53611901 372.22413555 318.5 369 C313.89422554 364.10900556 309.5738633 359.09232912 305.375 353.84375 C302.53535544 350.44364928 299.53611901 347.22413555 296.5 344 C291.89422554 339.10900556 287.5738633 334.09232912 283.375 328.84375 C280.5353545 325.44364815 277.53610629 322.224149 274.5 319 C269.87379473 314.08693945 265.52729122 309.04878041 261.30859375 303.77734375 C258.64720542 300.57557201 255.84537754 297.53765082 253 294.5 C248.56165094 289.76135857 244.40857547 284.87880421 240.34375 279.8125 C237.66791829 276.60150195 234.85641724 273.54970863 232 270.5 C227.56167326 265.76133536 223.4085775 260.87880674 219.34375 255.8125 C216.66791722 252.60150066 213.85640293 249.54972364 211 246.5 C206.54125556 241.73911006 202.3620217 236.8353218 198.27734375 231.74609375 C195.78173531 228.73680948 193.16234857 225.86061346 190.5 223 C186.23079221 218.41242561 182.24241261 213.66556996 178.3125 208.78125 C175.8002899 205.75980812 173.17599173 202.87558227 170.5 200 C166.23081848 195.41239887 162.24241483 190.66557272 158.3125 185.78125 C155.80028867 182.75980664 153.17597543 179.87559922 150.5 177 C146.2104224 172.38998361 142.19589103 167.62216764 138.24609375 162.71484375 C135.9116941 159.89326505 133.48009402 157.19409288 131 154.5 C126.90648909 150.05272888 123.07557501 145.45282537 119.28125 140.75 C116.93281032 137.91900422 114.49090098 135.20616402 112 132.5 C107.90648909 128.05272888 104.07557501 123.45282537 100.28125 118.75 C97.93281032 115.91900422 95.49090098 113.20616402 93 110.5 C88.88621091 106.0301488 85.02912703 101.40955107 81.21484375 96.68359375 C79.04367173 94.05291443 76.79758643 91.52057576 74.5 89 C70.58108748 84.70008209 66.90829131 80.24080453 63.25 75.71875 C61.06498431 73.07852271 58.80828609 70.5327028 56.5 68 C52.58108748 63.70008209 48.90829131 59.24080453 45.25 54.71875 C43.06498431 52.07852271 40.80828609 49.5327028 38.5 47 C35.47717579 43.68010514 32.57487839 40.30235888 29.75 36.8125 C26.12735279 32.33783646 22.40485933 27.9664163 18.625 23.625 C9.47201698 13.09503145 9.47201698 13.09503145 5.75 8.75 C5.28416504 8.2132666 4.81833008 7.6765332 4.33837891 7.12353516 C2.30440229 4.73889943 1.00298393 3.00895179 0 0 Z " fill="#0075B9" transform="translate(3,0)"/>
<path d="M0 0 C2.0561233 1.97492238 3.9343479 3.9311272 5.8125 6.0625 C6.34657471 6.65522705 6.88064941 7.2479541 7.4309082 7.85864258 C8.96343412 9.56426691 10.48403344 11.27965713 12 13 C12.66773437 13.75539062 13.33546875 14.51078125 14.0234375 15.2890625 C15.11723202 16.53691259 16.20720128 17.788128 17.29296875 19.04296875 C19.33633431 21.3855915 21.41680859 23.69273422 23.5 26 C26.18983431 28.98062721 28.86310364 31.97245233 31.5 35 C35.61081039 39.71701284 39.80667845 44.35638889 44 49 C48.76786975 54.27985576 53.51512218 59.57291806 58.1875 64.9375 C60.27211164 67.30964429 62.38428644 69.65556065 64.5 72 C67.18983431 74.98062721 69.86310364 77.97245233 72.5 81 C76.61081039 85.71701284 80.80667845 90.35638889 85 95 C89.76786975 100.27985576 94.51512218 105.57291806 99.1875 110.9375 C101.27211164 113.30964429 103.38428644 115.65556065 105.5 118 C108.76390848 121.61676345 111.98790949 125.26389608 115.1875 128.9375 C117.27211164 131.30964429 119.38428644 133.65556065 121.5 136 C124.76390848 139.61676345 127.98790949 143.26389608 131.1875 146.9375 C133.27211164 149.30964429 135.38428644 151.65556065 137.5 154 C140.76390848 157.61676345 143.98790949 161.26389608 147.1875 164.9375 C149.27211164 167.30964429 151.38428644 169.65556065 153.5 172 C156.76390848 175.61676345 159.98790949 179.26389608 163.1875 182.9375 C165.27211164 185.30964429 167.38428644 187.65556065 169.5 190 C174.29907792 195.32334693 179.0407795 200.68863339 183.6796875 206.15234375 C189.22567765 212.6752574 194.86520568 219.06659203 200.71411133 225.31958008 C203.7383702 228.57331665 206.60000498 231.90240919 209.375 235.375 C213.60978848 240.65693617 218.19871525 245.53876878 222.84716797 250.45263672 C226.98587046 254.85049683 230.82731544 259.40290295 234.59375 264.125 C237.59742005 267.71380058 240.78474154 271.1012067 244 274.5 C248.77178383 279.54416896 253.26183993 284.69394856 257.59375 290.125 C260.59742005 293.71380058 263.78474154 297.1012067 267 300.5 C271.77178383 305.54416896 276.26183993 310.69394856 280.59375 316.125 C283.59742005 319.71380058 286.78474154 323.1012067 290 326.5 C293.99401455 330.72200269 297.87289241 334.95258153 301.5 339.5 C306.27996646 345.48838495 311.53219357 350.99684413 316.78125 356.5703125 C320.73316017 360.76808922 324.52345773 365.08290505 328.25439453 369.47753906 C334.32040597 376.62022012 340.45736826 383.66068759 346.84375 390.51953125 C350.05969439 393.97369374 353.20517955 397.47435592 356.29296875 401.04296875 C358.33633431 403.3855915 360.41680859 405.69273422 362.5 408 C365.18983431 410.98062721 367.86310364 413.97245233 370.5 417 C374.61081039 421.71701284 378.80667845 426.35638889 383 431 C387.77033937 436.28259058 392.51894407 441.57934135 397.1953125 446.9453125 C400.75638173 450.99969003 404.3834804 454.9951293 408 459 C437.00368364 491.11817316 437.00368364 491.11817316 436.43359375 502.43359375 C434.75668061 512.35910663 427.69808777 519.00609763 421 526 C419.82387693 527.3249994 418.65615674 528.65754312 417.5 530 C413.87055059 534.17729083 410.1352098 538.25537239 406.40625 542.34375 C404.41351047 544.54352741 402.4466186 546.75955218 400.5 549 C396.87055059 553.17729083 393.1352098 557.25537239 389.40625 561.34375 C387.41351047 563.54352741 385.4466186 565.75955218 383.5 568 C380.71185902 571.20899244 377.86471815 574.35916444 375 577.5 C371.54671847 581.28662998 368.13900949 585.1047632 364.77734375 588.97265625 C361.94688384 592.20124678 359.06038793 595.37913175 356.18359375 598.56640625 C354.29151315 600.67511146 352.42094242 602.79919801 350.5625 604.9375 C346.91062947 609.13164365 343.15733816 613.23094292 339.41015625 617.33984375 C336.83006864 620.18755795 334.29798144 623.07244018 331.77734375 625.97265625 C329.70640513 628.33489173 327.60487152 630.66795853 325.5 633 C322.81016569 635.98062721 320.13689636 638.97245233 317.5 642 C314.10746907 645.89512811 310.64805799 649.72782763 307.1875 653.5625 C305.27445851 655.69417481 303.38112388 657.8401911 301.5 660 C298.10746907 663.89512811 294.64805799 667.72782763 291.1875 671.5625 C289.27445851 673.69417481 287.38112388 675.8401911 285.5 678 C282.10746907 681.89512811 278.64805799 685.72782763 275.1875 689.5625 C273.27445851 691.69417481 271.38112388 693.8401911 269.5 696 C266.10746907 699.89512811 262.64805799 703.72782763 259.1875 707.5625 C257.27445851 709.69417481 255.38112388 711.8401911 253.5 714 C250.10746907 717.89512811 246.64805799 721.72782763 243.1875 725.5625 C240.69938313 728.33497308 238.24932536 731.13844849 235.8046875 733.94921875 C233.77041859 736.26088797 231.6977769 738.5353143 229.625 740.8125 C226.57141133 744.18940982 223.65570795 747.63217132 220.8125 751.1875 C215.90996514 757.25320218 210.57741963 762.88164977 205.23046875 768.5546875 C202.28967421 771.67775922 199.43600823 774.86272092 196.63671875 778.11328125 C194.62126228 780.43658787 192.56151538 782.71748465 190.5 785 C185.70092208 790.32334693 180.9592205 795.68863339 176.3203125 801.15234375 C170.25201893 808.2902142 164.04897817 815.26169262 157.66796875 822.12109375 C153.4325365 826.6913918 149.36473809 831.39164663 145.33203125 836.140625 C139.2583712 843.28110357 133.05272228 850.25766781 126.66796875 857.12109375 C122.4325365 861.6913918 118.36473809 866.39164663 114.33203125 871.140625 C108.2583712 878.28110357 102.05272228 885.25766781 95.66796875 892.12109375 C91.4325365 896.6913918 87.36473809 901.39164663 83.33203125 906.140625 C77.73207562 912.72419453 72.0463913 919.1936397 66.15625 925.51953125 C62.93710045 928.97713632 59.78755757 932.48029051 56.69921875 936.0546875 C54.70593572 938.3366529 52.66506973 940.57228574 50.625 942.8125 C47.57141133 946.18940982 44.65570795 949.63217132 41.8125 953.1875 C36.90996514 959.25320218 31.57741963 964.88164977 26.23046875 970.5546875 C23.83365671 973.10005945 21.48026878 975.67234201 19.1875 978.3125 C18.66800781 978.90933594 18.14851563 979.50617187 17.61328125 980.12109375 C16.41186895 981.52031728 15.2238537 982.93106572 14.04296875 984.34765625 C6.32498432 993.34501827 -2.62468497 1000.27658944 -13 1006 C-12.35373775 1001.0572547 -10.92307411 996.57343768 -9.21875 991.9140625 C-8.79125206 990.72551414 -8.79125206 990.72551414 -8.3551178 989.51295471 C-7.73474314 987.78984869 -7.11205892 986.06757283 -6.48733521 984.34603882 C-5.12875765 980.60187753 -3.7815115 976.85366866 -2.43348694 973.10569763 C-1.71834515 971.11767022 -1.00262588 969.12985047 -0.28636169 967.14222717 C3.30468009 957.17283572 6.84327714 947.18512863 10.37460327 937.19445801 C12.17015574 932.11480094 13.96788637 927.03591495 15.765625 921.95703125 C16.12138107 920.95187469 16.47713715 919.94671814 16.84367371 918.91110229 C20.76958722 907.82148013 24.7118015 896.73766773 28.65557861 885.65438843 C32.62468268 874.49967533 36.58892213 863.34326172 40.54404449 852.18358231 C42.63318536 846.28893283 44.72278942 840.39444753 46.8125 834.5 C47.04630371 833.84048088 47.28010742 833.18096176 47.52099609 832.50145721 C54.20319442 813.65319681 60.92447519 794.81944258 67.6875 776 C75.28013297 754.86987158 82.75825184 733.70090168 90.19667053 712.51605225 C90.58551926 711.40860657 90.97436798 710.30116089 91.375 709.16015625 C91.95543312 707.50696381 91.95543312 707.50696381 92.54759216 705.82037354 C97.24908507 692.43510773 101.98674544 679.06267532 106.72924805 665.69189453 C107.42757976 663.72298466 108.12590334 661.75407191 108.82421875 659.78515625 C109.16877609 658.81376709 109.51333344 657.84237793 109.86833191 656.84155273 C112.3233886 649.9169952 114.76708528 642.98848804 117.20703125 636.05859375 C124.47444575 615.43134094 131.83434473 594.84162116 139.375 574.3125 C139.75422607 573.27926605 140.13345215 572.2460321 140.52416992 571.18148804 C144.1066387 561.42947972 147.70549837 551.68630021 151.47265625 542.00390625 C151.73232178 541.33347794 151.9919873 540.66304962 152.25952148 539.9723053 C153.40404546 537.01938081 154.55940209 534.07207034 155.74169922 531.1340332 C166.13326393 504.55912836 160.64917794 482.51740233 151.3125 456.8125 C150.54359783 454.67152393 149.77554756 452.53024174 149.00830078 450.38867188 C146.68687164 443.92043645 144.3453571 437.4595905 142 431 C141.33602626 429.16848386 140.67212275 427.33694225 140.00830078 425.50537109 C137.49060014 418.5625004 134.96725796 411.62170144 132.43579102 404.68383789 C126.49186049 388.39003143 120.61375994 372.07278325 114.75 355.75 C114.50524178 355.06871914 114.26048355 354.38743828 114.00830841 353.68551254 C106.07088195 331.59045975 98.16294466 309.48494458 90.27392578 287.37255859 C86.29304579 276.21523003 82.30740956 265.05967028 78.3046875 253.91015625 C77.91863342 252.83478607 77.53257935 251.75941589 77.13482666 250.65145874 C76.35470209 248.47849296 75.57457107 246.3055295 74.79443359 244.13256836 C66.68418416 221.54069816 58.63942635 198.92611758 50.61932373 176.30214119 C49.46242204 173.03864563 48.3054661 169.77516931 47.1484375 166.51171875 C46.92379318 165.8780904 46.69914886 165.24446205 46.46769714 164.59163284 C42.45137877 153.26419724 38.41939706 141.94243666 34.375 130.625 C33.79222476 128.99308681 33.2094611 127.36116949 32.62670898 125.72924805 C29.54383848 117.09934965 26.45200817 108.47272276 23.35198975 99.84896851 C13.99341868 73.80806331 4.65419364 47.77395866 -3.86328125 21.44335938 C-4.62267768 19.1429884 -5.41199952 16.85228705 -6.23046875 14.57226562 C-6.79701172 12.98188477 -6.79701172 12.98188477 -7.375 11.359375 C-7.71273438 10.44124023 -8.05046875 9.52310547 -8.3984375 8.57714844 C-9.08198598 5.64876461 -8.90578866 3.85224435 -8 1 C-5.08619655 -1.21047158 -3.36517732 -1.16556735 0 0 Z " fill="#00A658" transform="translate(38,207)"/>
</svg>
