<svg version="1.2" xmlns="http://www.w3.org/2000/svg" viewBox="0 0 1539 472" width="1539" height="472">
	<title>FedEx_Corporation_-_2016_Logo-svg</title>
	<style>
		.s0 { fill: #ff6600 } 
		.s1 { fill: #652c8f } 
	</style>
	<g id="g15">
		<g id="g17">
			<path id="polygon19" class="s0" d="m1145.5 455l128.5-144.4-128.5-144.4h135.6l63.6 70.1 61.2-70.1h130.9l-127.9 143.8 129.6 145h-136.1l-63-70.7-62.5 70.7z"/>
			<path id="polygon21" class="s0" d="m1145.5 101.4h-145.5v64.8h145.5v97.5h-145.5v89.6h145.5v101.7h-252.4v-455h252.4z"/>
		</g>
		<path id="path23" fill-rule="evenodd" class="s1" d="m893.1 0v455h-106.5v-29.5h-1.2c-19.4 28.9-51.3 46-86 46-80.6 0-139.2-65-148.4-140.4h-210.8c0 33.6 28 61.9 60.5 61.9 28 0 38.6-5.9 52.6-25.9h103.5c-27.1 66.6-78.4 103.1-156.1 103.1-92.5 0-165-66.6-165-161.5 0-15.9 1.9-30.9 5.5-45h-120.4v191.3h-120.8v-455h268.7v101.4h-147.9v64.8h135.5v59.6c27-48 78.8-77.4 144.4-77.4 80.7 0 135.1 42.5 156.3 111.8 18.5-62.9 71.2-110.5 141.2-110.5 34.2 0 63.6 9.4 87.2 36.5h1.2v-186.2zm-434.8 265.1c-5.6-29.5-26.8-47.8-57.6-47.8-28 0-50.4 18.9-57.1 47.8 0 0 117.1 0 114.7 0zm325.2 45.8c0-40.8-17.5-80.1-61.5-80.1-42.5 0-63.7 39.3-63.7 80.1 0 38.2 24.4 74.8 63.7 74.8 42.9 0 61.5-36 61.5-74.8z"/>
	</g>
</svg>